# xmcd
#
# Track frame offsets: 
#        151
#        15611
#        35861
#        48781
#        65352
#        87868
#        104097
#        125498
#        147614
#        165415
#        185133
#        203253
#        220198
#        239014
#        260455
#        280344
#
# Disc length: 4369 seconds
#
# Revision: 0
# Processed by: cddbd v1.5.1PL2 Copyright (c) Steve Scherf et al.
# Submitted via: ExactAudioCopy v0.95a5
#
DISCID=f0110f10
DTITLE=宋祖英 - 经典+精选
DYEAR=2005
DGENRE=民歌
TTITLE0=辣妹子
TTITLE1=古丈茶歌
TTITLE2=好日子
TTITLE3=小背篓
TTITLE4=海姑娘
TTITLE5=爱我中华
TTITLE6=兵哥哥
TTITLE7=英雄
TTITLE8=好收成
TTITLE9=东西南北兵
TTITLE10=中国永远收获着希望
TTITLE11=长大后我就成了你
TTITLE12=春天的祝福
TTITLE13=相约在月圆时节
TTITLE14=又唱江南
TTITLE15=月亮花儿开
EXTD=
EXTT0=
EXTT1=
EXTT2=
EXTT3=
EXTT4=
EXTT5=
EXTT6=
EXTT7=
EXTT8=
EXTT9=
EXTT10=
EXTT11=
EXTT12=
EXTT13=
EXTT14=
EXTT15=
PLAYORDER=
